#!OML:ASF H:\Terrain\Patient Classification 1\Animal2\Wednesday\Animal2.ASF
:FULLY-SPECIFIED
:DEGREES
137
root 22.5418 16.5004 -30.0271 0.627186 -22.3364 3.08724
lowerback 4.2216 -2.65793 -1.4274
upperback -1.67123 -3.55699 2.07525
thorax -3.87153 -1.70834 3.20559
lowerneck 16.9876 16.1409 16.1806
upperneck -32.364 19.2687 -31.7278
head -7.08909 11.5001 -15.6746
rclavicle -7.87684e-015 7.95139e-016
rhumerus -37.3186 11.8887 -81.6197
rradius 109.75
rwrist -11.1606
rhand -15.03 2.35969
rfingers 7.12502
rthumb 11.1358 -27.3248
lclavicle -7.87684e-015 7.95139e-016
lhumerus -48.9793 3.87029 86.3023
lradius 116.551
lwrist 62.5661
lhand -25.8408 52.9451
lfingers 7.12502
lthumb 0.699478 82.9237
rfemur -16.6218 10.8823 16.4855
rtibia 52.5952
rfoot -36.4707 -8.11147
rtoes -6.70453
lfemur -10.0297 -2.17307 -4.32312
ltibia 52.7965
lfoot -18.9705 -11.7281
ltoes -18.9419
138
root 22.5588 16.5409 -30.0054 0.740239 -22.3357 3.30042
lowerback 4.12021 -2.64125 -1.3507
upperback -1.92099 -3.5292 2.05804
thorax -4.08095 -1.69104 3.14691
lowerneck 17.9787 16.1859 15.4631
upperneck -32.7227 19.3027 -31.2298
head -7.56876 11.5465 -15.6311
rclavicle -1.19147e-014 1.59028e-014
rhumerus -37.0423 12.1444 -81.4547
rradius 110.037
rwrist -11.232
rhand -14.7177 2.93715
rfingers 7.12502
rthumb 11.437 -26.7309
lclavicle -1.19147e-014 1.59028e-014
lhumerus -50.103 4.2842 86.3492
lradius 116.592
lwrist 63.1611
lhand -24.3164 52.1363
lfingers 7.12502
lthumb 2.17182 82.105
rfemur -16.2519 10.904 16.1064
rtibia 51.6462
rfoot -36.0468 -8.09466
rtoes -7.90919
lfemur -11.1118 -2.02163 -4.7174
ltibia 52.7188
lfoot -19.2326 -11.3866
ltoes -17.0281
139
root 22.5682 16.5832 -29.9802 0.939699 -22.0264 2.99808
lowerback 4.19248 -2.61164 -0.947016
upperback -2.16053 -3.45948 2.18262
thorax -4.39126 -1.6592 3.05898
lowerneck 18.7786 16.0725 15.1652
upperneck -32.9928 19.1783 -30.9473
head -7.93496 11.4949 -15.6965
rclavicle -2.05059e-014 7.15625e-015
rhumerus -36.885 12.1193 -81.1326
rradius 110.339
rwrist -11.289
rhand -14.7481 3.79485
rfingers 7.12502
rthumb 11.4077 -25.8748
lclavicle -2.05059e-014 7.15625e-015
lhumerus -51.3984 4.38057 86.4771
lradius 116.769
lwrist 63.8163
lhand -24.7677 53.2498
lfingers 7.12502
lthumb 1.73595 83.2224
rfemur -15.6836 10.8868 16.3901
rtibia 50.6682
rfoot -35.6416 -8.10196
rtoes -7.60896
lfemur -12.1931 -1.92125 -4.50587
ltibia 52.5352
lfoot -19.8079 -10.0645
ltoes -21.2578
140
root 22.5722 16.6233 -29.9324 1.1355 -21.7581 2.37331
lowerback 3.95716 -2.5494 -0.145891
upperback -2.11914 -3.32592 2.29761
thorax -4.26078 -1.61662 2.70594
lowerneck 19.0691 15.9784 15.136
upperneck -33.0658 19.0893 -30.8482
head -8.06085 11.4485 -15.7338
rclavicle -4.28536e-014 -1.59028e-015
rhumerus -36.2283 12.0342 -80.808
rradius 110.553
rwrist -11.367
rhand -15.1609 4.52705
rfingers 7.12502
rthumb 11.0095 -25.1642
lclavicle -4.28536e-014 -1.59028e-015
lhumerus -52.4217 4.48111 86.5099
lradius 116.971
lwrist 64.5242
lhand -24.3886 53.0394
lfingers 7.12502
lthumb 2.10208 83.0088
rfemur -14.9558 10.9061 17.0379
rtibia 49.6927
rfoot -35.2634 -8.41707
rtoes -8.04072
lfemur -13.0004 -1.708 -4.02304
ltibia 52.2218
lfoot -21.1614 -7.17496
ltoes -31.3398
141
root 22.5861 16.6689 -29.8788 1.34436 -21.6339 2.23327
lowerback 3.47386 -2.54769 0.260273
upperback -2.09636 -3.30491 2.39046
thorax -3.98196 -1.61967 2.54634
lowerneck 19.3198 16.026 14.7853
upperneck -33.1216 19.0896 -30.7448
head -8.19453 11.4762 -15.7074
rclavicle 1.02126e-014 -7.95139e-015
rhumerus -35.2467 12.3496 -80.3957
rradius 110.576
rwrist -11.4893
rhand -15.1733 4.868
rfingers 7.12502
rthumb 10.9976 -24.8239
lclavicle 1.02126e-014 -7.95139e-015
lhumerus -53.3963 5.12369 86.5159
lradius 117.255
lwrist 65.163
lhand -23.5919 51.7583
lfingers 7.12502
lthumb 2.8715 81.7187
rfemur -14.5224 10.8153 17.0274
rtibia 48.7558
rfoot -34.8481 -8.6575
rtoes -9.36575
lfemur -13.9202 -1.50802 -4.19476
ltibia 51.776
lfoot -22.4637 -3.47275
ltoes -40.1019
142
root 22.5998 16.722 -29.8514 1.57306 -21.2368 2.36011
lowerback 3.50515 -2.67413 -0.00697213
upperback -2.44271 -3.47013 2.74209
thorax -4.3163 -1.68499 3.08598
lowerneck 19.9761 16.0959 14.1175
upperneck -33.1731 19.0427 -30.6769
head -8.45895 11.5287 -15.7331
rclavicle -5.98249e-014 -1.11319e-014
rhumerus -34.6415 13.0337 -79.6492
rradius 110.643
rwrist -11.679
rhand -15.0607 5.01625
rfingers 7.12502
rthumb 11.1062 -24.6699
lclavicle -5.98249e-014 -1.11319e-014
lhumerus -54.7574 6.20495 86.7526
lradius 117.635
lwrist 65.678
lhand -22.5934 51.0364
lfingers 7.12502
lthumb 3.8358 80.9816
rfemur -14.2582 10.5316 16.7621
rtibia 47.8818
rfoot -34.4292 -8.50729
rtoes -10.7761
lfemur -15.1982 -1.6072 -4.50609
ltibia 51.2236
lfoot -22.9622 -2.03913
ltoes -41.9542
143
root 22.6094 16.7667 -29.8461 1.8041 -20.5908 2.24853
lowerback 3.87084 -2.88348 -0.200055
upperback -2.90828 -3.73118 3.18329
thorax -4.95652 -1.79052 3.71436
lowerneck 20.8217 16.2471 13.3325
upperneck -33.1282 19.1254 -30.452
head -8.7364 11.6403 -15.6874
rclavicle 1.02697e-013 -1.74931e-014
rhumerus -34.3865 13.8029 -79.0393
rradius 110.785
rwrist -11.9804
rhand -15.3228 5.27803
rfingers 7.12502
rthumb 10.8534 -24.4215
lclavicle 1.02697e-013 -1.74931e-014
lhumerus -56.2851 7.35104 86.8307
lradius 118.06
lwrist 66.2115
lhand -21.5504 51.3304
lfingers 7.12502
lthumb 4.84289 81.2551
rfemur -13.8984 10.2079 16.8367
rtibia 47.0872
rfoot -34.0246 -8.07047
rtoes -10.3982
lfemur -16.5309 -1.86856 -4.36617
ltibia 50.5745
lfoot -22.9846 -3.19146
ltoes -38.9035
144
root 22.6215 16.7979 -29.8399 2.03011 -19.8675 1.94232
lowerback 4.12385 -3.08306 -0.0480035
upperback -3.18637 -3.96527 3.50575
thorax -5.36641 -1.89834 4.01516
lowerneck 21.2965 16.4044 12.6399
upperneck -33.1408 19.2157 -30.1479
head -8.9583 11.7203 -15.5707
rclavicle 6.4779e-014 1.74931e-014
rhumerus -33.9958 14.3007 -78.6128
rradius 110.842
rwrist -12.1632
rhand -15.5542 5.44902
rfingers 7.12502
rthumb 10.6302 -24.2621
lclavicle 6.4779e-014 1.74931e-014
lhumerus -57.3865 8.13437 86.6721
lradius 118.458
lwrist 66.751
lhand -21.3497 51.6654
lfingers 7.12502
lthumb 5.03666 81.5856
rfemur -13.4844 9.88331 17.1397
rtibia 46.3842
rfoot -33.6355 -7.73482
rtoes -7.43821
lfemur -17.7355 -2.0918 -4.04136
ltibia 49.7941
lfoot -23.003 -3.37707
ltoes -39.683
145
root 22.6361 16.8371 -29.8212 2.17482 -19.1801 1.92751
lowerback 4.20219 -3.21575 -0.082078
upperback -3.39447 -4.13148 3.68158
thorax -5.60454 -1.97076 4.24863
lowerneck 21.8493 16.4241 12.1531
upperneck -33.4314 19.1315 -29.9544
head -9.29132 11.7048 -15.6061
rclavicle -3.70485e-014 9.54166e-015
rhumerus -33.5926 14.5038 -78.1386
rradius 110.827
rwrist -12.2228
rhand -15.8159 5.71803
rfingers 7.12502
rthumb 10.3778 -24.0059
lclavicle -3.70485e-014 9.54166e-015
lhumerus -58.366 8.70799 86.4941
lradius 118.914
lwrist 67.0582
lhand -21.9812 51.7073
lfingers 7.12502
lthumb 4.42697 81.641
rfemur -13.1364 9.52436 17.1112
rtibia 45.7648
rfoot -33.2468 -7.66858
rtoes -7.37091
lfemur -18.8261 -2.27533 -4.12756
ltibia 48.8375
lfoot -23.0799 -2.58626
ltoes -42.254
146
root 22.6561 16.8815 -29.7945 2.17657 -18.772 2.12486
lowerback 4.27025 -3.24076 -0.235861
upperback -3.65298 -4.1686 3.69137
thorax -5.9022 -1.97521 4.36764
lowerneck 22.9391 16.298 12.1567
upperneck -33.7073 19.0343 -29.9093
head -9.63798 11.6705 -15.8479
rclavicle 2.41523e-014 1.11319e-014
rhumerus -33.5518 14.704 -77.8612
rradius 110.839
rwrist -12.7117
rhand -16.4392 6.4674
rfingers 7.12502
rthumb 9.77641 -23.2857
lclavicle 2.41523e-014 1.11319e-014
lhumerus -59.6807 9.20575 86.0725
lradius 119.498
lwrist 67.3124
lhand -21.9734 51.2749
lfingers 7.12502
lthumb 4.43442 81.2085
rfemur -12.7792 9.24802 16.8036
rtibia 45.1976
rfoot -32.8238 -7.66141
rtoes -10.5179
lfemur -19.6477 -2.4699 -4.48635
ltibia 47.7437
lfoot -22.9992 -2.54406
ltoes -41.0234
147
root 22.68 16.9143 -29.7694 2.05647 -18.4193 2.08868
lowerback 4.60969 -0.112254 0.485557
upperback -1.72268 -0.0716606 1.17171
thorax -4.36412 -0.0325075 0.943892
lowerneck 11.9787 14.4237 20.144
upperneck -28.7091 17.6849 -31.4485
head -5.00906 10.1613 -15.0845
rclavicle -6.48162e-014 -9.54166e-015
rhumerus -31.9752 3.66102 -77.0929
rradius 111.059
rwrist -12.667
rhand -17.1757 7.21144
rfingers 7.12502
rthumb 9.06579 -22.5737
lclavicle -6.48162e-014 -9.54166e-015
lhumerus -54.6232 -0.883521 86.4469
lradius 118.986
lwrist 68.1108
lhand -21.4486 50.4841
lfingers 7.12502
lthumb 4.94122 80.4065
rfemur -12.2052 9.1042 16.7821
rtibia 44.6427
rfoot -32.3627 -7.79774
rtoes -12.1043
lfemur -20.2207 -2.71205 -4.5831
ltibia 46.5784
lfoot -23.0149 -2.47874
ltoes -40.2944
148
root 22.7033 16.9382 -29.7381 1.96256 -17.9163 1.7323
lowerback 4.86323 -0.797919 0.969648
upperback -2.19192 -0.917039 1.80814
thorax -4.98431 -0.455971 1.41277
lowerneck 14.9984 14.4597 18.2766
upperneck -29.7535 17.6929 -31.0892
head -6.16626 10.4165 -15.2712
rclavicle -2.60097e-014 1.35174e-014
rhumerus -32.0693 6.20806 -76.7787
rradius 111.033
rwrist -13.1589
rhand -17.7031 7.30338
rfingers 7.12502
rthumb 8.55688 -22.5032
lclavicle -2.60097e-014 1.35174e-014
lhumerus -56.676 1.80147 86.0383
lradius 119.762
lwrist 67.9762
lhand -21.1261 49.9799
lfingers 7.12502
lthumb 5.2526 79.8948
rfemur -11.4226 8.95161 17.112
rtibia 43.9585
rfoot -31.8843 -7.83995
rtoes -12.3462
lfemur -20.721 -2.97975 -4.35546
ltibia 45.3296
lfoot -23.1271 -2.35069
ltoes -40.9012
149
root 22.7309 16.9651 -29.6898 2.02391 -17.4024 1.38451
lowerback 4.84779 -0.810674 1.50474
upperback -2.28071 -0.887975 1.97666
thorax -5.07518 -0.45649 1.28606
lowerneck 15.397 14.395 17.8554
upperneck -29.7259 17.5919 -30.8669
head -6.34738 10.3954 -15.2034
rclavicle 2.57271e-014 3.18055e-015
rhumerus -31.8083 6.25765 -76.2743
rradius 110.911
rwrist -13.5172
rhand -18.4269 7.44583
rfingers 7.12502
rthumb 7.85836 -22.3881
lclavicle 2.57271e-014 3.18055e-015
lhumerus -57.3449 2.40273 85.7005
lradius 120.328
lwrist 67.8121
lhand -20.6127 50.0024
lfingers 7.12502
lthumb 5.74832 79.9045
rfemur -10.7997 8.64201 17.2818
rtibia 43.2352
rfoot -31.5788 -7.33716
rtoes -11.7882
lfemur -21.3704 -3.4784 -4.21902
ltibia 44.0899
lfoot -23.0289 -2.73063
ltoes -38.4472
